<svg width="814" height="158" viewBox="0 0 814 158" fill="none" xmlns="http://www.w3.org/2000/svg">
<path d="M0 32.7436C28.725 22.8646 59.8399 10.7459 88.4299 0L176.87 35.3153L176.84 52.8724C155.57 47.0577 123.7 37.2779 102.99 32.9077C103 71.9192 103.95 114.9 102.97 153.557L88.48 157.32L73.98 153.528L74.03 32.902C52.12 36.9833 22.332 45.1571 0.0619507 50.5329L0 32.7436Z" fill="#6698FE"/>
<path d="M88.4316 0L176.872 35.3153L176.842 52.8724C155.572 47.0577 123.702 37.2779 102.992 32.9077C103.002 71.9192 103.952 114.9 102.972 153.557L88.4817 157.32L88.4316 0Z" fill="#FFFDFE"/>
<path d="M120.781 43.0895L121.151 43.0799C126.451 42.992 166.031 50.342 170.341 55.6557C175.881 62.4889 175.371 69.8461 175.411 77.9778C172.311 77.9629 169.761 78.0448 166.701 77.3685C164.071 75.2094 164.411 74.8811 163.581 71.0812C155.171 68.2941 136.771 67.176 127.061 66.2915L126.961 124.455C138.611 123.062 152.271 120.497 164.001 118.593L163.901 105.934C160.651 106.313 154.421 107.492 151.891 105.879L151.531 103.198L151.521 86.9216C159.161 87.3779 167.621 87.2202 175.321 87.2339C175.471 97.9941 178.841 132.769 165.821 135.957C149.091 140.055 108.131 161.835 108.481 129.149C108.741 104.336 106.201 78.16 109.841 53.6905C110.551 48.857 116.911 44.8839 120.781 43.0895Z" fill="#FFFDFE"/>
<path d="M66.5999 39.9146L67.0899 40.2603C69.9099 51.035 66.4399 81.8001 67.6699 94.6605C66.8199 104.217 72.2999 151.034 54.0499 147.553C-9.05507 135.517 1.68793 135.411 0.494934 76.7377C0.0609341 69.5138 0.173937 60.9234 0.0859375 53.5948C3.65894 52.9846 7.80094 51.9864 11.3959 51.2181C11.3559 73.6782 11.5099 96.1381 11.8599 118.595L48.6699 124.525L48.5899 43.4394C53.8399 42.6878 61.2299 40.9799 66.5999 39.9146Z" fill="#6698FE"/>
<path d="M436.52 51.0255C446.29 50.1694 457.96 50.6834 467.79 50.9409C476.09 50.6971 477.89 61.68 477.43 68.2196C476.74 77.8598 479.87 89.7731 471.36 96.249C466.42 97.3855 436.78 98.2491 433.78 93.8768C428.8 86.6214 430.77 68.8965 431.24 60.1384C431.48 55.5117 433.08 53.692 436.52 51.0255ZM441.19 86.5767L466.98 86.567C466.74 77.9303 466.65 69.2906 466.68 60.6509L441.23 60.6158L441.19 86.5767Z" fill="#FFFDFE"/>
<path d="M665.751 50.9722L670.021 50.8611C716.401 49.6773 705.761 53.3123 706.511 96.8361C703.621 96.9429 699.571 97.479 697.261 95.9566C695.601 93.6326 696.141 88.5187 696.181 85.4125L695.771 82.8102C691.521 81.248 675.871 82.019 670.361 82.1528L670.421 96.7928L660.131 96.8593C660.271 85.7531 659.401 74.3652 659.981 63.3105C660.321 56.8407 661.071 54.9886 665.751 50.9722ZM670.381 71.7424L696.311 71.8217L696.131 60.6395L670.341 60.6241L670.381 71.7424Z" fill="#FFFDFE"/>
<path d="M312.79 50.9637L329.07 50.5814C346.33 50.2377 354.77 49.7726 353.48 70.4394C352.97 78.5092 353.32 88.626 353.44 96.8255C350.54 96.9412 346.62 97.4755 344.29 95.9642C342.61 93.6324 343.13 88.531 343.16 85.4123C343.2 84.5821 342.87 83.5587 342.65 82.7273C338.48 81.2933 322.78 82.0197 317.4 82.1532L317.46 96.7836L307.25 96.8698C307.02 85.7702 306.56 73.9695 307.03 62.9095C307.29 56.7016 308.31 54.7738 312.79 50.9637ZM317.42 71.743L343.32 71.827L343.14 60.6398L317.37 60.622L317.42 71.743Z" fill="#FFFDFE"/>
<path d="M483.971 50.7384C494.821 50.9051 512.431 49.8608 522.441 51.3192C532.891 52.8428 537.481 81.584 517.111 81.4522C509.671 81.3313 501.731 81.6162 494.261 81.7557L494.301 96.8347L483.991 96.8744C483.781 81.7097 483.971 65.9448 483.971 50.7384ZM494.111 71.4213C502.551 71.4416 511.351 71.3319 519.761 71.5985L519.701 60.6426L494.201 60.6116C494.181 63.8121 494.301 68.3413 494.111 71.4213Z" fill="#FFFDFE"/>
<path d="M259.201 51.0096C269.111 50.4049 304.741 45.9562 299.771 63.6772C293.891 66.2692 273.011 55.0596 263.941 62.2554C263.691 64.6957 263.411 66.0063 264.181 68.3836C278.631 70.7642 303.041 60.6137 300.031 85.5284C299.321 91.3744 299.191 92.0598 294.621 96.0451C287.461 97.9554 262.151 98.8513 256.191 93.075C253.981 90.9326 252.051 85.2889 254.471 82.8595C263.201 82.2946 262.721 86.2792 266.121 86.2518C269.971 86.2206 287.111 87.6167 289.591 85.6758L289.481 79.7004C282.561 74.2756 250.691 88.5364 253.181 64.0567C253.831 57.6173 254.141 55.2981 259.201 51.0096Z" fill="#FFFDFE"/>
<path d="M719.161 51.0547C724.571 50.6087 730.491 50.8188 735.961 50.5935C745.701 50.1928 763.611 49.2441 759.441 64.5362C750.051 67.0919 752.711 61.5978 746.371 60.9375C739.901 60.2617 730.741 60.5594 724.061 60.6431C723.871 62.9368 723.501 65.0341 724.311 67.1809C733.301 74.2727 763.891 57.2732 759.871 85.875C759.071 91.5671 759.741 91.0219 755.371 95.7129C748.201 97.9673 739.001 96.2521 732.021 97.2324C724.431 98.2977 708.191 92.911 714.861 83.5742C718.971 81.587 722.181 81.9029 724.271 86.2125C727.161 86.7528 746.231 86.7687 749.221 86.2999C749.711 84.6421 749.451 81.5493 749.391 79.7123C747.431 78.0331 743.061 78.4111 740.621 78.4814C726.401 78.8927 711.501 82.8118 713.561 62.2165C714.211 55.7191 714.061 55.6764 719.161 51.0547Z" fill="#FFFDFE"/>
<path d="M772.361 50.97C781.781 50.7126 814.821 46.2308 812.951 61.1096C812.691 63.2177 812.801 63.1848 811.261 64.5201C808.101 64.6849 806.561 64.6414 803.401 64.3335L802.571 62.302C799.061 59.7167 780.071 59.5462 776.901 62.0579L776.961 67.2195C781.521 73.7675 820.021 56.0578 812.341 89.728C811.471 93.5621 809.031 94.8103 806.071 96.6903C795.921 96.955 785.16 97.8065 775.16 96.3501C769.15 95.4747 764.001 88.1348 767.401 82.8868C775.481 81.738 776.341 85.8567 777.691 86.035C782.641 86.6888 797.601 86.5772 802.711 86.5677C802.551 84.9919 802.681 80.5363 802.681 78.7366C795.801 78.5766 787.671 78.7684 780.731 79.112C764.261 79.9275 761.671 60.4539 772.361 50.97Z" fill="#FFFDFE"/>
<path d="M561.691 50.9282C571.831 50.7131 582.151 50.0918 592.221 50.8451C598.361 51.304 604.981 58.6234 602.241 64.3721C594.341 67.1696 593.171 61.5904 589.371 61.1172C582.791 60.2992 573.061 60.5619 566.231 60.6218V86.562C572.341 86.4495 588.281 88.5197 591.941 84.2182L591.571 80.9827C589.621 78.8547 589.031 79.4973 585.291 79.1093C584.351 79.648 583.661 79.4213 582.591 79.2575C581.371 76.9261 581.891 72.5496 582.001 69.7365L602.481 69.6997C602.551 76.4861 603.481 87.2366 600.331 92.833C594.321 98.3885 564.831 98.9831 558.801 93.8184C553.651 89.4025 555.851 67.0848 556.201 60.5821C556.451 55.9976 558.131 54.0571 561.691 50.9282Z" fill="#FFFDFE"/>
<path d="M236.911 50.73C239.761 50.6127 243.121 50.2786 245.801 51.1397C247.761 53.8314 247.111 54.7002 247.151 58.5176C246.991 67.0552 249.581 87.2795 244.321 93.0863C239.061 98.9079 208.301 98.9186 203.641 92.8992C198.241 85.9354 200.981 60.1739 201.071 50.724L211.331 50.8248C210.711 61.999 211.041 75.2338 211.061 86.5757L236.851 86.5701L236.911 50.73Z" fill="#FFFDFE"/>
<path d="M612.65 50.2552C616.05 50.3546 617.02 49.8556 619.67 51.4375C620.73 56.475 620.16 80.3811 620.11 86.5669L656.51 86.5212C656.64 90.1442 656.74 92.3684 656.26 96.0297L654.81 96.8241L610.4 96.8649C610.22 83.4612 609.39 64.7519 610.93 51.3604C610.96 51.0745 612.25 50.4779 612.65 50.2552Z" fill="#FFFDFE"/>
<path d="M379.721 50.7192C394.921 50.9154 410.591 50.7334 425.821 50.7239L425.861 60.6394L407.831 60.6363L407.791 79.1227L407.851 96.8224L397.751 96.8427C397.491 84.7828 397.461 72.7191 397.671 60.6582L379.871 60.6628L379.721 50.7192Z" fill="#FFFDFE"/>
</svg>
