<svg width="44" height="44" viewBox="0 0 44 44" fill="none" xmlns="http://www.w3.org/2000/svg">
<path d="M0.649897 16.7156C3.5677 4.92078 15.494 -2.26844 27.2844 0.64936C39.0782 3.56605 46.2685 15.4901 43.3507 27.2828C40.4318 39.0754 28.5088 46.268 16.7151 43.3491C4.92466 40.4324 -2.27013 28.5083 0.649897 16.7156Z" fill="#F6F6F6"/>
<path d="M42.342 13.6351H25.302V17.003H43.4238C43.1542 15.8488 42.7899 14.7236 42.342 13.6351ZM37.9926 6.89597H25.302V10.2672H40.6029C39.8454 9.0651 38.9708 7.93541 37.9926 6.89597ZM6.11296 37.2137H37.8879C38.8716 36.1887 39.7607 35.0624 40.5372 33.8458H3.46811C4.23684 35.0479 5.12254 36.1765 6.11296 37.2137ZM27.2829 0.64927C26.6222 0.485499 25.9616 0.356265 25.302 0.254883V3.52919H33.9507C31.9565 2.23908 29.7183 1.25199 27.2829 0.64927ZM43.9385 20.3698H25.3031V23.741H43.9263C44.0176 22.6069 44.0198 21.4805 43.9385 20.3698ZM1.7034 30.479H42.2963C42.7219 29.4574 43.0751 28.3901 43.3492 27.2827C43.3636 27.2248 43.3759 27.1668 43.3904 27.1078H0.601562C0.878971 28.2631 1.24773 29.3905 1.7034 30.4779M16.7146 43.349C18.0159 43.6709 19.3194 43.8692 20.6117 43.9528H23.4114C27.1336 43.7144 30.6887 42.5301 33.7647 40.5827H10.2228C12.1725 41.8171 14.3505 42.7652 16.7146 43.349Z" fill="#E52A18"/>
<path d="M23.6344 22.5062L23.1598 22.1597L22.6829 22.5062L22.8645 21.948L22.3899 21.6015H22.9771L23.1598 21.0434L23.3391 21.6015H23.9274L23.4528 21.948L23.6344 22.5062ZM21.297 4.7799L21.4775 5.3414L21.0029 4.99492L20.5272 5.3414L20.7099 4.7799L20.2342 4.43676H20.8213L21.004 3.87526L21.1856 4.43676H21.7738L21.2981 4.7799H21.297ZM21.297 9.84454L21.4775 10.4027L21.0029 10.0562L20.5272 10.4027L20.7099 9.84454L20.2342 9.49806H20.8213L21.004 8.9399L21.1856 9.49806H21.7738L21.2981 9.84454H21.297ZM21.2536 14.8056L21.4352 15.3637L20.9594 15.0173L20.4848 15.3637L20.6664 14.8056L20.1896 14.4591H20.7778L20.9594 13.9009L21.1399 14.4591H21.7282L21.2536 14.8056ZM21.3917 20.268L20.916 19.9215L20.4414 20.268L20.6219 19.7098L20.1462 19.3633H20.7344L20.916 18.8052L21.0965 19.3633H21.6847L21.209 19.7098L21.3917 20.268ZM19.0532 7.23423L19.2359 7.79239L18.7613 7.44925L18.2834 7.79239L18.4661 7.23423L17.9915 6.88775H18.5786L18.7613 6.32959L18.9407 6.88775H19.5278L19.0532 7.23423ZM19.0532 12.1407L19.2359 12.6988L18.7613 12.3524L18.2834 12.6988L18.4661 12.1407L17.9915 11.7942H18.5786L18.7613 11.236L18.9407 11.7942H19.5278L19.0532 12.1407ZM19.0532 17.1574L19.2359 17.7189L18.7613 17.3724L18.2834 17.7189L18.4661 17.1574L17.9915 16.8143H18.5786L18.7613 16.2528L18.9407 16.8143H19.5278L19.0532 17.1574ZM19.2371 22.5062L18.7625 22.1597L18.2845 22.5062L18.4672 21.948L17.9926 21.6015H18.5798L18.7625 21.0434L18.9418 21.6015H19.529L19.0544 21.948L19.2371 22.5062ZM16.8986 4.7799L17.0813 5.3414L16.6056 4.99492L16.1288 5.3414L16.3115 4.7799L15.8369 4.43676H16.424L16.6056 3.87526L16.7872 4.43676H17.3754L16.8997 4.7799H16.8986ZM16.8986 9.84454L17.0813 10.4027L16.6056 10.0562L16.1288 10.4027L16.3115 9.84454L15.8369 9.49806H16.424L16.6056 8.9399L16.7872 9.49806H17.3754L16.8997 9.84454H16.8986ZM16.8574 14.8056L17.039 15.3637L16.5621 15.0173L16.0875 15.3637L16.2691 14.8056L15.7934 14.4591H16.3805L16.5632 13.9009L16.7448 14.4591H17.3331L16.8585 14.8056H16.8574ZM16.9933 20.268L16.5187 19.9215L16.043 20.268L16.2235 19.7098L15.7488 19.3633H16.336L16.5187 18.8052L16.7003 19.3633H17.2874L16.8128 19.7098L16.9944 20.268H16.9933ZM14.657 2.33001L14.8386 2.88817L14.364 2.54169L13.8872 2.88817L14.0688 2.33001L13.5942 1.98353H14.1824L14.364 1.42537L14.5456 1.98353H15.1339L14.6582 2.33001H14.657ZM14.657 7.23423L14.8386 7.79239L14.364 7.44925L13.8872 7.79239L14.0688 7.23423L13.5942 6.88775H14.1824L14.364 6.32959L14.5456 6.88775H15.1339L14.6582 7.23423H14.657ZM14.657 12.1407L14.8386 12.6988L14.364 12.3524L13.8872 12.6988L14.0688 12.1407L13.5942 11.7942H14.1824L14.364 11.236L14.5456 11.7942H15.1339L14.6582 12.1407H14.657ZM14.657 17.1574L14.8386 17.7189L14.364 17.3724L13.8872 17.7189L14.0688 17.1574L13.5942 16.8143H14.1824L14.364 16.2528L14.5456 16.8143H15.1339L14.6582 17.1574H14.657ZM14.8386 22.5062L14.364 22.1597L13.8872 22.5062L14.0688 21.948L13.5942 21.6015H14.1824L14.364 21.0434L14.5456 21.6015H15.1339L14.6582 21.948L14.8398 22.5062H14.8386ZM12.5013 4.60387L12.684 5.16537L12.206 4.81889L11.7314 5.16537L11.9142 4.60387L11.4384 4.26073H12.0256L12.2072 3.70257L12.3899 4.26073H12.977L12.5024 4.60387H12.5013ZM12.5013 9.66852L12.684 10.2267L12.206 9.88354L11.7314 10.2267L11.9142 9.66852L11.4384 9.32204H12.0256L12.2072 8.76388L12.3899 9.32204H12.977L12.5024 9.66852H12.5013ZM12.4567 14.6296L12.6394 15.1877L12.1648 14.8412L11.6869 15.1877L11.8696 14.6296L11.395 14.2831H11.9821L12.1648 13.7249L12.3442 14.2831H12.9324L12.4567 14.6296ZM12.596 20.0953L12.1203 19.7488L11.6457 20.0953L11.8273 19.5338L11.3504 19.1906H11.9375L12.1203 18.6325L12.3019 19.1906H12.8901L12.4155 19.5338L12.5971 20.0953H12.596ZM10.2597 7.23423L10.4424 7.79239L9.96784 7.44925L9.4899 7.79239L9.67261 7.23423L9.198 6.88775H9.7829L9.96673 6.32959L10.1461 6.88775H10.7332L10.2586 7.23423H10.2597ZM10.2597 12.1407L10.4424 12.6988L9.96784 12.3524L9.4899 12.6988L9.67261 12.1407L9.198 11.7942H9.7829L9.96673 11.236L10.1461 11.7942H10.7332L10.2586 12.1407H10.2597ZM10.2597 17.1574L10.4424 17.7189L9.96784 17.3724L9.4899 17.7189L9.67261 17.1574L9.198 16.8143H9.7829L9.96673 16.2528L10.1461 16.8143H10.7332L10.2586 17.1574H10.2597ZM10.4424 22.5062L9.96784 22.1597L9.4899 22.5062L9.67261 21.948L9.198 21.6015H9.7829L9.96673 21.0434L10.1461 21.6015H10.7332L10.2586 21.948L10.4413 22.5062H10.4424ZM8.10508 9.6195L8.28668 10.1777L7.81208 9.83118L7.33525 10.1777L7.51796 9.6195L7.04224 9.27302H7.63048L7.81208 8.71486L7.99256 9.27302H8.58191L8.1062 9.6195H8.10508ZM8.06163 14.5817L8.24323 15.1398L7.76863 14.7933L7.2918 15.1398L7.47339 14.5817L6.99879 14.2352H7.58592L7.76863 13.677L7.948 14.2352H8.53624L8.06163 14.5817ZM8.19755 20.0429L7.72295 19.6964L7.24835 20.0429L7.42883 19.4848L6.952 19.1383H7.54024L7.72184 18.5801L7.90455 19.1383H8.49167L8.01484 19.4848L8.19644 20.0429H8.19755ZM18.5786 1.98353L18.7613 1.42537L18.9407 1.98353H19.5278L19.0532 2.33001L19.2359 2.88817L18.7613 2.54169L18.2834 2.88817L18.4661 2.33001L17.9915 1.98353H18.5786ZM22.9759 16.8143L23.1587 16.2528L23.338 16.8143H23.9263L23.4517 17.1574L23.6333 17.7189L23.1587 17.3724L22.6818 17.7189L22.8634 17.1574L22.3888 16.8143H22.9759ZM22.9759 11.7942L23.1587 11.236L23.338 11.7942H23.9263L23.4517 12.1407L23.6333 12.6988L23.1587 12.3524L22.6818 12.6988L22.8634 12.1407L22.3888 11.7942H22.9759ZM22.9759 6.88775L23.1587 6.32959L23.338 6.88775H23.9263L23.4517 7.23423L23.6333 7.79239L23.1587 7.44925L22.6818 7.79239L22.8634 7.23423L22.3888 6.88775H22.9759ZM22.9759 1.98353L23.1587 1.42537L23.338 1.98353H23.9263L23.4517 2.33001L23.6333 2.88817L23.1587 2.54169L22.6818 2.88817L22.8634 2.33001L22.3888 1.98353H22.9759ZM5.86242 12.1407L6.04402 12.6988L5.5683 12.3524L5.0937 12.6988L5.2753 12.1407L4.79958 11.7942H5.38671L5.56942 11.236L5.75101 11.7942H6.33925L5.86354 12.1407H5.86242ZM5.86242 17.1574L6.04402 17.7189L5.5683 17.3724L5.0937 17.7189L5.2753 17.1574L4.79958 16.8143H5.38671L5.56942 16.2528L5.75101 16.8143H6.33925L5.86354 17.1574H5.86242ZM6.04402 22.5062L5.5683 22.1597L5.0937 22.5062L5.2753 21.948L4.79847 21.6015H5.38559L5.5683 21.0434L5.7499 21.6015H6.33925L5.86354 21.948L6.04513 22.5062H6.04402ZM3.66098 14.4948L3.84369 15.0529L3.36798 14.7064L2.89337 15.0529L3.07497 14.4948L2.59925 14.1483H3.18749L3.36798 13.5901L3.55069 14.1483H4.13781L3.6621 14.4948H3.66098ZM3.80024 19.9571L3.32564 19.6106L2.8477 19.9571L3.03041 19.399L2.55581 19.0525H3.14293L3.32564 18.4943L3.50501 19.0525H4.09436L3.61753 19.399L3.80024 19.9571ZM1.64559 22.5062L1.17099 22.1597L0.695276 22.5062L0.876873 21.948L0.402271 21.6015H0.99051L1.17211 21.0434L1.35482 21.6015H1.93971L1.46511 21.948L1.64671 22.5062H1.64559ZM25.3011 0.25558C25.0849 0.222158 23.4817 0.0461319 23.2656 0.0205078L19.3117 0.166453C15.213 0.671136 11.3694 2.32444 8.20424 4.86902L8.28557 5.11858L8.07946 4.96818C7.35196 5.56199 6.66122 6.2037 6.01282 6.88887H6.33702L5.86131 7.23535L6.0429 7.79351L5.56719 7.45037L5.37779 7.5874C4.93439 8.09877 4.51326 8.6313 4.11664 9.185H4.18238L4.04423 9.28527C3.94842 9.42119 3.8526 9.55822 3.76014 9.69637L3.88714 10.0896L3.62533 9.90025C2.28731 11.9323 1.26458 14.2207 0.64737 16.7162C0.639572 16.7486 0.631773 16.782 0.623974 16.8143H0.988281L1.16988 16.2528L1.35259 16.8143H1.93749L1.46288 17.1574L1.64448 17.7189L1.16988 17.3724L0.694162 17.7189L0.875758 17.1574L0.59278 16.9524C0.0513323 19.2452 -0.109096 21.5403 0.070272 23.7707H25.3022V0.25558H25.3011Z" fill="#24356B"/>
</svg>
