<svg width="260" height="232" viewBox="0 0 260 232" fill="none" xmlns="http://www.w3.org/2000/svg">
<path d="M129.91 0C167.552 16.0413 206.411 30.1093 244.258 45.735C249.238 47.7911 254.7 50.0586 259.748 51.808L259.78 77.7205L150.858 48.0817C150.853 106.27 149.908 167.914 150.944 225.84C144.16 227.728 136.604 230.012 129.767 231.387C123.815 230.113 115.019 227.471 108.929 225.843L108.895 47.8478C74.017 57.5355 35.706 65.0483 0.272995 74.2825C0.287995 65.6665 0.197 57.0507 0 48.4369C42.605 32.3125 87.852 16.8243 129.91 0Z" fill="#6698FE"/>
<path d="M129.909 0C167.551 16.0413 206.41 30.1093 244.257 45.735C249.237 47.7911 254.699 50.0586 259.747 51.808L259.779 77.7205L150.857 48.0817C150.852 106.27 149.907 167.914 150.943 225.84C144.159 227.728 136.603 230.012 129.766 231.387C131.033 210.578 129.864 177.823 129.859 155.763L129.909 0Z" fill="#1975BF"/>
<path d="M174.928 64.2649C179.873 63.5262 187.374 63.9994 192.149 65.5027C233.062 78.3813 257.465 62.3943 257.782 114.633C252.267 114.569 246.55 114.029 241.034 113.59L241.151 103.41C226.346 100.833 202.014 98.983 186.418 97.3287C186.827 125.67 186.465 155.016 186.474 183.435C203.663 180.218 223.887 176.945 241.191 174.572C240.918 168.803 241.133 161.658 241.153 155.784C237.491 156.103 225.779 157.606 222.929 156.595L222.514 154.526L222.487 128.117L257.841 128.475C257.473 145.317 260.128 166.259 256.39 182.442C254.973 188.576 252.728 195.004 247.165 198.437C238.416 203.837 184.417 218.829 175.506 216.606C170.281 215.304 166.07 211.705 163.356 207.13C161.336 203.725 159.954 199.763 159.508 195.826C158.114 183.54 157.822 91.61 160.234 82.3266C162.471 73.7179 167.471 68.5761 174.928 64.2649Z" fill="#1975BF"/>
<path d="M96.2844 59.0289L98.4885 59.019L99.3314 60.5054C98.0114 91.9518 100.119 124.649 99.2614 156.272C99.9114 176.957 103.943 229.422 67.2104 215.382C46.5664 207.492 5.09145 207.193 1.97045 182.74C-0.643549 162.269 0.385451 136.848 0.429451 116.352L0.323448 79.1399L16.8155 75.5875L16.9894 174.732C29.7974 175.714 57.6764 181.126 71.4214 183.386L71.0334 64.4068C78.9474 62.472 88.2224 60.736 96.2844 59.0289Z" fill="#6698FE"/>
</svg>
